{"title":"The Time Travelers 1964 DVDRip NvadR MKV","uid":10399407,"size":3265902276,"categoryP":"video","categoryS":"movies","magnet":"?xt=urn:btih:ed8f665218abb025db275ee608f575efab2655d2&amp;dn=The+Time+Travelers+1964+DVDRip+NvadR+MKV&amp;tr=udp%3A%2F%2Ftracker.openbittorrent.com%3A80&amp;tr=udp%3A%2F%2Fopen.demonii.com%3A1337&amp;tr=udp%3A%2F%2Ftracker.coppersurfer.tk%3A6969&amp;tr=udp%3A%2F%2Fexodus.desync.com%3A6969","seeders":1,"leechers":0,"uploader":"ReconRedneck2","files":-1,"time":1403330247,"description":"General\n\nComplete name                  : The.Time.Travelers.1964.DVDRip.NvadR.mkv\nFormat                         : Matroska\nFormat version                 : Version 1\nFile size                      : 3.04 GiB\nDuration                       : 1h 23mn\nOverall bit rate               : 5 198 Kbps\nEncoded date                   : UTC 2014-06-19 17:51:05\nWriting application            : AVSMatroskaFile\nWriting library                : libebml v0.7.7 + libmatroska v0.8.1\n\nVideo\nID                             : 1\nFormat                         : AVC\nFormat/Info                    : Advanced Video Codec\nFormat profile                 : &lt;a class=&quot;__cf_email__&quot; href=&quot;/cdn-cgi/l/email-protection&quot; data-cfemail=&quot;317c50585f717d041f00&quot;&gt;[email&amp;#160;protected]&lt;/a&gt;&lt;script cf-hash='f9e31' type=&quot;text/javascript&quot;&gt;\n/* &lt;![CDATA[ */!function(){try{var t=&quot;currentScript&quot;in document?document.currentScript:function(){for(var t=document.getElementsByTagName(&quot;script&quot;),e=t.length;e--;)if(t[e].getAttribute(&quot;cf-hash&quot;))return t[e]}();if(t&amp;&amp;t.previousSibling){var e,r,n,i,c=t.previousSibling,a=c.getAttribute(&quot;data-cfemail&quot;);if(a){for(e=&quot;&quot;,r=parseInt(a.substr(0,2),16),n=2;a.length-n;n+=2)i=parseInt(a.substr(n,2),16)^r,e+=String.fromCharCode(i);e=document.createTextNode(e),c.parentNode.replaceChild(e,c)}}}catch(u){}}();/* ]]&gt; */&lt;/script&gt;\nFormat settings, CABAC         : Yes\nFormat settings, ReFrames      : 2 frames\nCodec ID                       : V_MPEG4/ISO/AVC\nDuration                       : 1h 23mn\nBit rate                       : 4 902 Kbps\nWidth                          : 720 pixels\nHeight                         : 480 pixels\nDisplay aspect ratio           : 3:2\nFrame rate mode                : Constant\nFrame rate                     : 23.976 fps\nStandard                       : NTSC\nColor space                    : YUV\nChroma subsampling             : 4:2:0\nBit depth                      : 8 bits\nScan type                      : Progressive\nBits/(Pixel*Frame)             : 0.592\nStream size                    : 2.87 GiB (94%)\nDefault                        : Yes\nForced                         : No\n\nAudio\nID                             : 2\nFormat                         : MPEG Audio\nFormat version                 : Version 1\nFormat profile                 : Layer 3\nCodec ID                       : A_MPEG/L3\nCodec ID/Hint                  : MP3\nDuration                       : 1h 23mn\nBit rate mode                  : Constant\nBit rate                       : 192 Kbps\nChannel(s)                     : 2 channels\nSampling rate                  : 44.1 KHz\nCompression mode               : Lossy\nStream size                    : 115 MiB (4%)\nWriting library                : LAME\nDefault                        : Yes\nForced                         : No\n\nSource:                        :MGM Movies 4 You Sci-Fi Classics disc. Resolution                     :720 x 480\nRegion                         :NTSC Region 1\nSubtitles:                     :No\n\n--------------- SCREENS ---------------\n &lt;a href=&quot;\nhttp://istoreimg.com/i/53a4fff67f88d.html&quot; rel=&quot;nofollow&quot; target=&quot;_NEW&quot;&gt;\nhttp://istoreimg.com/i/53a4fff67f88d.html&lt;/a&gt; \n &lt;a href=&quot;\nhttp://istoreimg.com/i/53a5006aa4905.html&quot; rel=&quot;nofollow&quot; target=&quot;_NEW&quot;&gt;\nhttp://istoreimg.com/i/53a5006aa4905.html&lt;/a&gt; \n &lt;a href=&quot;\nhttp://istoreimg.com/i/53a5008c89588.html&quot; rel=&quot;nofollow&quot; target=&quot;_NEW&quot;&gt;\nhttp://istoreimg.com/i/53a5008c89588.html&lt;/a&gt; \n &lt;a href=&quot;\nhttp://istoreimg.com/i/53a50172e737d.html&quot; rel=&quot;nofollow&quot; target=&quot;_NEW&quot;&gt;\nhttp://istoreimg.com/i/53a50172e737d.html&lt;/a&gt;","torrent":{"xt":"urn:btih:ed8f665218abb025db275ee608f575efab2655d2","amp;dn":"The+Time+Travelers+1964+DVDRip+NvadR+MKV","amp;tr":["udp%3A%2F%2Ftracker.openbittorrent.com%3A80","udp%3A%2F%2Fopen.demonii.com%3A1337","udp%3A%2F%2Ftracker.coppersurfer.tk%3A6969","udp%3A%2F%2Fexodus.desync.com%3A6969"],"infoHash":"ed8f665218abb025db275ee608f575efab2655d2","infoHashBuffer":{"type":"Buffer","data":[237,143,102,82,24,171,176,37,219,39,94,230,8,245,117,239,171,38,85,210]},"announce":[],"urlList":[]}}